<!--?xml version="1.0" standalone="no"?-->
              <svg id="sw-js-blob-svg" viewBox="0 0 100 100" xmlns="http://www.w3.org/2000/svg" version="1.1">
                    <defs> 
                        <linearGradient id="sw-gradient" x1="0" x2="1" y1="1" y2="0">
                            <stop id="stop1" stop-color="rgba(107, 70, 193, 1)" offset="0%"></stop>
                            <stop id="stop2" stop-color="rgba(215.575, 209.09, 230.649, 1)" offset="100%"></stop>
                        </linearGradient>
                    </defs>
                <path fill="url(#sw-gradient)" d="M18.8,-24.5C24.4,-17.7,29.1,-11.8,31.6,-4.6C34,2.6,34.2,11.2,30.2,16.8C26.3,22.4,18.2,25.1,10.8,26.4C3.3,27.7,-3.4,27.7,-11.4,26.8C-19.4,25.8,-28.7,23.9,-31.9,18.4C-35.2,12.9,-32.3,3.9,-29.6,-4.1C-26.8,-12,-24.1,-18.8,-19.2,-25.7C-14.3,-32.7,-7.1,-39.9,-0.3,-39.6C6.6,-39.3,13.2,-31.4,18.8,-24.5Z" width="100%" height="100%" transform="translate(50 50)" stroke-width="0" style="transition: all 0.3s ease 0s;"></path>
              </svg>